name rise34.3697peak60.0498fall86.3158.mot
datacolumns 19
datarows 29
range 6.62163800000000 6.66830500000000
endheader
time	ground_force1_vx	ground_force1_vy	ground_force1_vz	ground_force1_px	ground_force1_py	ground_force1_pz	ground_force2_vx	ground_force2_vy	ground_force2_vz	ground_force2_px	ground_force2_py	ground_force2_pz	ground_torque1_x	ground_torque1_y	ground_torque1_z	ground_torque2_x	ground_torque2_y	ground_torque2_z	
6.62163800000000	-7.20639800000000	40.47056400000000	-7.97319300000000	0.43147000000000	0.00000000000000	0.09640300000000	-49.04724500000000	804.70784900000001	-56.72525500000000	0.23186000000000	0.00000000000000	-0.08642700000000	0.00000000000000	-7.08871300000000	0.00000000000000	0.00000000000000	-33.29831500000000	0.00000000000000	
6.62330700000000	-8.01454800000000	47.02851900000000	-8.91641200000000	0.43280800000000	0.00000000000000	0.09728700000000	-49.40340500000000	801.77068099999997	-56.44462400000000	0.23096600000000	0.00000000000000	-0.08636500000000	0.00000000000000	-7.93721300000000	0.00000000000000	0.00000000000000	-33.10871800000000	0.00000000000000	
6.62497800000000	-8.71382600000000	53.56461200000000	-9.75592800000000	0.43418900000000	0.00000000000000	0.09810800000000	-49.76268700000000	798.71757000000002	-56.14093800000000	0.23007400000000	0.00000000000000	-0.08630000000000	0.00000000000000	-8.69858800000000	0.00000000000000	0.00000000000000	-32.91222600000000	0.00000000000000	
6.62664500000000	-9.28377700000000	59.98718700000000	-10.47067600000000	0.43560500000000	0.00000000000000	0.09887500000000	-50.12541900000000	795.54959199999996	-55.81418000000000	0.22918500000000	0.00000000000000	-0.08623100000000	0.00000000000000	-9.35470800000000	0.00000000000000	0.00000000000000	-32.70903400000000	0.00000000000000	
6.62831100000000	-9.71098100000000	66.22995000000000	-11.04710400000000	0.43704600000000	0.00000000000000	0.09959300000000	-50.49189900000000	792.26778500000000	-55.46436000000000	0.22829900000000	0.00000000000000	-0.08615800000000	0.00000000000000	-9.89401400000000	0.00000000000000	0.00000000000000	-32.49934100000000	0.00000000000000	
6.62997400000000	-9.98908700000000	72.25365300000000	-11.47920600000000	0.43850800000000	0.00000000000000	0.10026900000000	-50.86239000000000	788.87314000000003	-55.09152100000000	0.22741600000000	0.00000000000000	-0.08608100000000	0.00000000000000	-10.31156300000000	0.00000000000000	0.00000000000000	-32.28334900000000	0.00000000000000	
6.63164200000000	-10.11827500000000	78.04528600000000	-11.76793700000000	0.43998500000000	0.00000000000000	0.10090600000000	-51.23711800000000	785.36659299999997	-54.69573500000000	0.22653600000000	0.00000000000000	-0.08600000000000	0.00000000000000	-10.60852800000000	0.00000000000000	0.00000000000000	-32.06126200000000	0.00000000000000	
6.63331200000000	-10.10427900000000	83.61524199999999	-11.92016200000000	0.44147300000000	0.00000000000000	0.10150900000000	-51.61626900000000	781.74901999999997	-54.27710600000000	0.22566000000000	0.00000000000000	-0.08591500000000	0.00000000000000	-10.79127500000000	0.00000000000000	0.00000000000000	-31.83328700000000	0.00000000000000	
6.63497800000000	-9.95712500000000	88.99304600000001	-11.94729400000000	0.44297000000000	0.00000000000000	0.10208100000000	-51.99998800000000	778.02122599999996	-53.83576700000000	0.22478800000000	0.00000000000000	-0.08582500000000	0.00000000000000	-10.87017100000000	0.00000000000000	0.00000000000000	-31.59963300000000	0.00000000000000	
6.63664100000000	-9.68974500000000	94.22224700000000	-11.86379800000000	0.44447200000000	0.00000000000000	0.10262400000000	-52.38837100000000	774.18394000000001	-53.37188600000000	0.22392000000000	0.00000000000000	-0.08573200000000	0.00000000000000	-10.85826700000000	0.00000000000000	0.00000000000000	-31.36050700000000	0.00000000000000	
6.63830600000000	-9.31659800000000	99.35504899999999	-11.68571000000000	0.44597600000000	0.00000000000000	0.10314200000000	-52.78147000000000	770.23781399999996	-52.88566100000000	0.22305800000000	0.00000000000000	-0.08563300000000	0.00000000000000	-10.76998300000000	0.00000000000000	0.00000000000000	-31.11611700000000	0.00000000000000	
6.63997400000000	-8.85241300000000	104.44715400000000	-11.42927700000000	0.44748200000000	0.00000000000000	0.10363500000000	-53.17928200000000	766.18340999999998	-52.37732100000000	0.22220000000000	0.00000000000000	-0.08553100000000	0.00000000000000	-10.61990600000000	0.00000000000000	0.00000000000000	-30.86667100000000	0.00000000000000	
6.64164100000000	-8.31112700000000	109.55319400000000	-11.10981700000000	0.44898700000000	0.00000000000000	0.10410700000000	-53.58175300000000	762.02120400000001	-51.84712800000000	0.22134800000000	0.00000000000000	-0.08542400000000	0.00000000000000	-10.42177400000000	0.00000000000000	0.00000000000000	-30.61237200000000	0.00000000000000	
6.64330500000000	-7.70507300000000	114.72301899999999	-10.74084700000000	0.45048900000000	0.00000000000000	0.10455900000000	-53.98877100000000	757.75157700000000	-51.29537500000000	0.22050300000000	0.00000000000000	-0.08531200000000	0.00000000000000	-10.18769100000000	0.00000000000000	0.00000000000000	-30.35342300000000	0.00000000000000	
6.64497400000000	-7.04444000000000	119.99895800000000	-10.33349600000000	0.45198700000000	0.00000000000000	0.10499100000000	-54.40016800000000	753.37481700000001	-50.72238800000000	0.21966300000000	0.00000000000000	-0.08519600000000	0.00000000000000	-9.92760200000000	0.00000000000000	0.00000000000000	-30.09002200000000	0.00000000000000	
6.64663700000000	-6.33698800000000	125.41411500000000	-9.89620500000000	0.45348000000000	0.00000000000000	0.10540600000000	-54.81571300000000	748.89111200000002	-50.12852500000000	0.21883100000000	0.00000000000000	-0.08507600000000	0.00000000000000	-9.64901900000000	0.00000000000000	0.00000000000000	-29.82236400000000	0.00000000000000	
6.64830600000000	-5.58800300000000	130.99161699999999	-9.43467700000000	0.45496700000000	0.00000000000000	0.10580400000000	-55.23511300000000	744.30055600000003	-49.51417400000000	0.21800600000000	0.00000000000000	-0.08495100000000	0.00000000000000	-9.35697300000000	0.00000000000000	0.00000000000000	-29.55063700000000	0.00000000000000	
6.64997700000000	-4.80045400000000	136.74472200000000	-8.95204600000000	0.45644600000000	0.00000000000000	0.10618600000000	-55.65801100000000	739.60314200000005	-48.87975600000000	0.21718900000000	0.00000000000000	-0.08482100000000	0.00000000000000	-9.05415800000000	0.00000000000000	0.00000000000000	-29.27502700000000	0.00000000000000	
6.65164300000000	-3.97529000000000	142.67760400000000	-8.44920100000000	0.45791700000000	0.00000000000000	0.10655300000000	-56.08398300000000	734.79876700000000	-48.22572200000000	0.21638100000000	0.00000000000000	-0.08468600000000	0.00000000000000	-8.74121700000000	0.00000000000000	0.00000000000000	-28.99570900000000	0.00000000000000	
6.65330800000000	-3.11184700000000	148.78664100000000	-7.92522500000000	0.45937700000000	0.00000000000000	0.10690600000000	-56.51253600000000	729.88723500000003	-47.55255700000000	0.21558200000000	0.00000000000000	-0.08454700000000	0.00000000000000	-8.41713800000000	0.00000000000000	0.00000000000000	-28.71285500000000	0.00000000000000	
6.65497300000000	-2.20829800000000	155.06201600000000	-7.37788000000000	0.46082700000000	0.00000000000000	0.10724500000000	-56.94311100000000	724.86825599999997	-46.86077300000000	0.21479200000000	0.00000000000000	-0.08440300000000	0.00000000000000	-8.07968300000000	0.00000000000000	0.00000000000000	-28.42662700000000	0.00000000000000	
6.65664200000000	-1.26212100000000	161.48944299999999	-6.80410700000000	0.46226500000000	0.00000000000000	0.10757200000000	-57.37507800000000	719.74144999999999	-46.15091400000000	0.21401200000000	0.00000000000000	-0.08425500000000	0.00000000000000	-7.72584700000000	0.00000000000000	0.00000000000000	-28.13718000000000	0.00000000000000	
6.65830500000000	-0.27052500000000	168.05188699999999	-6.20049900000000	0.46369000000000	0.00000000000000	0.10788600000000	-57.80773600000000	714.50635699999998	-45.42355500000000	0.21324300000000	0.00000000000000	-0.08410200000000	0.00000000000000	-7.35227600000000	0.00000000000000	0.00000000000000	-27.84466100000000	0.00000000000000	
6.65997800000000	0.76916600000000	174.73113200000000	-5.56370400000000	0.46510100000000	0.00000000000000	0.10818700000000	-58.24031500000000	709.16243799999995	-44.67929900000000	0.21248500000000	0.00000000000000	-0.08394400000000	0.00000000000000	-6.95564400000000	0.00000000000000	0.00000000000000	-27.54920700000000	0.00000000000000	
6.66164600000000	1.85920400000000	181.50912500000001	-4.89076200000000	0.46649700000000	0.00000000000000	0.10847800000000	-58.67197400000000	703.70908499999996	-43.91877800000000	0.21173800000000	0.00000000000000	-0.08378100000000	0.00000000000000	-6.53295100000000	0.00000000000000	0.00000000000000	-27.25094500000000	0.00000000000000	
6.66331200000000	3.00119800000000	188.36903200000000	-4.17934600000000	0.46787600000000	0.00000000000000	0.10875700000000	-59.10180400000000	698.14563099999998	-43.14265200000000	0.21100400000000	0.00000000000000	-0.08361400000000	0.00000000000000	-6.08175100000000	0.00000000000000	0.00000000000000	-26.94999500000000	0.00000000000000	
6.66497400000000	4.19596500000000	195.29599300000001	-3.42792100000000	0.46923800000000	0.00000000000000	0.10902400000000	-59.52882500000000	692.47135500000002	-42.35160800000000	0.21028200000000	0.00000000000000	-0.08344200000000	0.00000000000000	-5.60030000000000	0.00000000000000	0.00000000000000	-26.64646400000000	0.00000000000000	
6.66664000000000	5.44346800000000	202.27757099999999	-2.63581400000000	0.47058100000000	0.00000000000000	0.10928200000000	-59.95199200000000	686.68550000000005	-41.54636000000000	0.20957400000000	0.00000000000000	-0.08326500000000	0.00000000000000	-5.08761900000000	0.00000000000000	0.00000000000000	-26.34045100000000	0.00000000000000	
6.66830500000000	6.74281500000000	209.30392699999999	-1.80321100000000	0.47190300000000	0.00000000000000	0.10952900000000	-60.37019500000000	680.78728100000001	-40.72764600000000	0.20888000000000	0.00000000000000	-0.08308400000000	0.00000000000000	-4.54350400000000	0.00000000000000	0.00000000000000	-26.03204300000000	0.00000000000000	
